<svg id="组_12" data-name="组 12" xmlns="http://www.w3.org/2000/svg" width="732" height="601" viewBox="0 0 732 601">
  <defs>
    <style>
      .cls-1 {
        fill: #112b3e;
        stroke: #4ca7a7;
        stroke-width: 1px;
        fill-rule: evenodd;
      }
    </style>
  </defs>
  <path id="呼伦贝尔" class="cls-1" d="M572.4,247.676h7.021l4.68-3.589,4.68-5.983,8.19,4.786,4.681,1.2-2.341,3.589-2.34,5.983,4.681,5.982H619.2l3.51-3.589,5.851-2.393,4.68,5.982h4.68l5.85-5.982,7.021-4.786,1.438-8.615,6.473-5.743,8.63-4.257,7.192-6.511,8.631-10.051,10.788-8.615,5.754,5.025h4.314l2.878-15.075,1.438-8.615,5.035-7.179,8.63-4.307,2.158-9.333-2.158-10.051-0.719-11.486,6.472-12.922,2.9-4.234,0.444-2.918-0.455-2.4-3.03-.33-3.479-1.066L718.31,118.4l-4.369.381-1.392-1.36-3.963.464-2.568-.635-1.432-1.734-2.154,2.964-1.925,6.013-2.028.4-1.237-2.081-2.111-.561-1.862,1.177-1.979.053-4.853-3.5-0.43-2.177,2.634-1.4,1.113-1.242,2.533-.192,3.325-4.415-2.684-4.4-3.377-2.515,0.056-1.676-1.594-.94L686.97,96.7l-4.907-8.419-2.5-3.088-2.877-1.436-4.315,4.307-6.473-2.871L660.14,75.86l-1.438-7.9-2.877-10.05,1.8-5.743-2.517-6.461-6.473-5.743-7.911-3.59-4.316,7.179-5.034-1.436-5.034-5.025L621.3,34.472l1.406-5.992,3.629-4.307,3.6-6.461V6.943L628.56,3.353,622.709,1.2,619.2,2.635l-7.964.718L602.6,9.1l-6.473,7.9-8.63,7.179-1.439,6.461,6.473,2.872,10.788,0.967-1.674,6.212v4.307l3.832,5.025v5.743L600.446,61.5l-10.069,6.461L584.1,78.014l-4.68,12.2-5.582,8.615L570.959,109.6l-5.035,8.14-4.314,11.243,1.438,2.872,3.6-.718-1.439,7.179-2.876,1.436-7.193,1.436-7.911,5.025-7.192,5.743-0.719,2.872,2.877,2.153-2.877,5.025-5.754-1.435-5.753-2.154-7.912.718-10.068,1.436-14.384,1.435-5.035,7.179-3.6,6.462-3.6,5.025-2.157,10.05-4.316,9.333-2.877,11.486-6.473,7.9,2.158,7.9,6.473,0.718,4.315,2.687,6.473-1.251,12.226-3.59,8.631,0.718,5.754,5.743,5.034-1.62,5.035-4.123,7.192-4.307,5.753-2.872,6.473,1.436,5.754,4.307,3.6,5.076,7.192,0.483,2.877,1.62-0.719,5.025,5.753,5.026,4.315,2.871Z"/>
  <path id="兴安盟" class="cls-1" d="M572.4,247.676h7.021l4.68-3.589,4.68-5.983,8.19,4.786,4.681,1.2-2.341,3.589-2.34,5.983,4.681,5.982H619.2l3.51-3.589,5.851-2.393,4.68,5.982h4.68l5.85-5.982,7.021-4.786,2.157,5.743,7.192,2.154,3.6,8.614,2.158,2.872,7.192-7.9,7.192,2.154-0.719,8.614-5.754,3.59-6.473,7.179v7.179l-4.315,5.025-7.192,1.243,2.877,8.09-3.6,3.589h-5.034l-11.508-7.179-3.6,3.59,3.6,4.307v5.743l5.754,14.358-3.6,10.768,2.158,10.051,6.472,11.486-8.63,3.59h-7.911l-3.6-8.615-11.507-5.743-5.034-10.769L601.166,330l-5.754-10.051-12.946-7.9h-3.048l3.048-2.153v-5.026l-6.473-3.589,1.439-7.179v-5.743l5.034-2.872v-7.179l-3.048-2.871-6.3-2.872,5.034-2.154,2.158-5.025-4.316-9.332Z"/>
  <path id="通辽" class="cls-1" d="M573.117,312.047l-7.912,3.59-3.6,5.025v6.461l3.6,2.154-1.438,2.153h7.911l4.315,3.59-0.719,3.589,2.877,4.308v6.461l10.069,7.179,6.473,7.9,7.192,3.59-3.6,8.615,5.753,7.179-2.157,5.025-7.192,4.307,3.6,6.461v4.308l-7.192,4.307v6.461l3.6,3.59,3.6,4.307-3.6,6.461v3.589l6.473,5.026,2.157-2.872h5.754l6.472-.718,5.754-6.461h10.788l2.877-7.179H640l7.911,2.872V418.3l3.6-3.59,5.034,5.025H662.3l5.034-5.025,7.192-3.589,3.6-5.743,0.72-6.462v-3.589l-4.316-4.307V385.99l3.6-5.025-3.6-10.05-5.753-5.744v-7.9H657.264l-7.912,2.871-8.63,3.59h-7.911l-3.6-8.615-11.507-5.743-5.034-10.769L601.166,330l-5.754-10.051-12.946-7.9h-9.349Z"/>
  <path id="赤峰" class="cls-1" d="M596.85,441.268l-4.315,7.179-8.631-.718-2.157-7.9-8.63-5.025H568.8v11.486l2.158,13.911-3.6,4.755-8.631,2.153H547.225l-8.63-7.9V444.858L535,431.52l-7.192-7.481-9.35-2.154v5.025h-6.473l-2.877,6.461-6.472-7.179-11.508-2.871,5.035-8.615-7.192-5.743-3.6-5.743v-5.026l7.912-6.461,0.719-6.46,8.631-2.154v-9.333l5.753-4.307h20.138l7.192-6.461-0.719-7.9,10.788-2.154,7.192-6.461v-7.9l8.631-3.589,2.157-3.59h7.911l4.315,3.59-0.719,3.589,2.877,4.308v6.461l10.069,7.179,6.473,7.9,7.192,3.59-3.6,8.615,5.753,7.179-2.157,5.025-7.192,4.307,3.6,6.461v4.308l-7.192,4.307v6.461l3.6,3.59,3.6,4.307-3.6,6.461v3.589l6.473,5.026Z"/>
  <path id="锡林郭勒" class="cls-1" d="M509.107,433.371l-6.472-7.179-11.508-2.871,5.035-8.615-7.192-5.743-3.6-5.743v-5.026l7.912-6.461,0.719-6.46,8.631-2.154v-9.333l5.753-4.307h20.138l7.192-6.461-0.719-7.9,10.788-2.154,7.192-6.461v-7.9l8.631-3.589,2.157-3.59,1.438-2.153-3.6-2.154v-6.461l3.6-5.025,7.912-3.59h6.472l2.877-2.153v-5.026l-6.473-3.589,1.439-7.179v-5.743l5.034-2.872v-7.179l-2.877-2.871-6.472-2.872L565.205,274l-6.473-6.646H550.1l0.719,5.21-10.069-2.154-7.911-.717-5.034,5.743-7.192-2.872-9.35,9.333h-9.35L494,285.485l-5.753,5.743v12.2l-10.789,2.153-5.034,10.051-8.63,7.179-4.316-5.026H447.256l-7.192,2.872v7.9l-12.227,5.025-10.788,5.743h-15.1l-15.823-4.307H373.9l-5.754,5.743-3.6,7.9,2.158,8.615h10.788l9.35,3.589V370.2l-7.192,7.179H373.9l-4.315,8.614-7.192,1.436-8.631,7.9v8.615l6.473,2.153,5.754,5.026-0.72,9.332H373.9l5.754,5.743,3.6,10.769,6.472-.718,8.631,0.718,2.877-4.308h9.349l5.754,4.308,10.788-7.179,9.35,2.871V442.7l2.877,3.589,2.157-2.153,5.754-4.308,5.034,5.026v6.461l5.754,0.718,5.035,4.307,10.787-5.743,3.6-7.9,7.192,4.307h10.069l9.35-2.153Z"/>
  <path id="乌兰察布" class="cls-1" d="M437.187,449.165h-8.631L421.365,460.2l7.191,10.5,6.473,7.179-1.438,13.64-6.473.718-10.069-3.59-12.946,3.59H387.562l-1.079-5.026-5.394-4.307-6.473-3.589-2.877-6.462H360.232v-7.9l3.6-5.743-5.754-2.154-5.034-.718v-9.333l2.877-5.743h-7.192l-6.473-4.307,3.6-7.179,0.719-7.179-4.315,1.436-5.035-1.436-5.753-5.743,2.158-.718-1.439-1.436,5.754-10.768,6.472-6.461,9.35-2.154v8.615l6.473,2.153,5.754,5.026-0.72,9.332H373.9l5.754,5.743,3.6,10.769,6.472-.718,8.631,0.718,2.877-4.308h9.349l5.754,4.308,10.788-7.179,9.35,2.871V442.7l2.877,3.589Z"/>
  <path id="包头" class="cls-1" d="M358.074,472.138l2.158,0.717v-7.9l3.6-5.743-5.754-2.154-5.034-.718v-9.333l2.877-5.743h-7.192l-6.473-4.307,3.6-7.179,0.719-7.179-4.315,1.436-5.035-1.436-5.753-5.743-12.227,3.589-5.034,3.59h-5.754l-2.158,1.238,9.35,10.966,3.6,8.615-5.753,8.749h-7.193l2.878,9.2h10.068v12.922l-3.6,4.307,9.35,5.026-4.315,5.743-7.911,3.589,0.719,8.615,7.192-4.307h9.349l4.316,4.307,7.911,3.517,7.911,2.226,7.192-.718-5.753-6.461-6.473-3.589-0.72-7.179,2.518-7.9-8.271-3.589v-7.179l5.753-5.026,7.193-1.435Z"/>
  <path id="巴彦淖尔" class="cls-1" d="M307.011,501.571l-7.911.718-4.316-7.179-5.034-5.025-10.788-2.154-7.192,7.179-5.035,3.59-7.191,3.589-3.6,10.051-7.192,5.743-2.157-1.436-5.035-9.333,2.158-.79-5.034-2.8v-5.743l-7.192-3.59-6.473,3.59-8.631-2.872,0.719-7.9h-8.63l-2.877-5.025,2.877-9.333-5.034-8.614,2.157-7.179,2.877-2.154,2.157-6.461,5.754-1.436,6.473,5.026,5.754-4.308,8.63,0.718,7.192-3.589,2.877,5.743,5.754-3.59,6.473,1.436,11.507-.718,4.315-4.307-3.6-9.333,3.6-7.179L284,424.039l10.068,5.025,12.226-3.787,9.35,10.966,3.6,8.615-5.753,8.749h-7.193l2.878,9.2h10.068v12.922l-3.6,4.307,9.35,5.026-4.315,5.743-7.911,3.589,0.719,8.615Z"/>
  <path id="阿拉善" class="cls-1" d="M241.563,507.314l2.158-.79-5.034-2.8v-5.743l-7.192-3.59-6.473,3.59-8.631-2.872,0.719-7.9h-8.63l-2.877-5.025,2.877-9.333-5.034-8.614,2.157-7.179-1.438.718-11.507-1.436-3.6-4.307-12.945-2.872L158.855,450.6l-8.631-9.333-8.63-5.025-10.788,1.436-8.63-2.872-2.877-6.461-9.35-6.461-15.1-.718L83.339,416.86H68.954l-9.35,3.589H45.221L35.152,418.3l-12.946,1.435-10.788-5.025L0.63,419.731,2.069,430.5l4.315,14.358,7.911,7.179-0.719,4.307L7.822,467.112l5.034,7.179,2.877,8.615H25.8l2.158,7.179,10.788,2.154,15.1-.718,7.192-7.9,10.069-.718,7.911,3.589-5.035,5.744,1.438,11.486-8.63,7.9-2.877,8.614,5.035,6.461H78.3l4.315,7.9,7.911,3.59v10.768l10.788,0.718,3.595,10.051,15.823,0.717,5.034-7.178-3.595-7.179,9.349-5.026,10.069-.717,5.034,3.4h9.35l-0.719-6.994,10.069-.718,9.349-6.461,1.439,10.769,2.157,4.307-11.507,11.486,0.719,7.9-8.63,10.768v7.179l6.473,7.179,7.911,2.154,5.034,8.615H194.1l10.069-7.179,11.507-1.436,3.6-5.743V572.643l7.192-9.333V546.081l7.192-1.436,2.877-5.743,5.034-2.872-3.6-1.436v-7.179l-3.6-3.589,5.035-7.9-1.439-5.025Z"/>
  <path id="呼和浩特" class="cls-1" d="M358.074,472.138l2.158,0.717h11.507l2.877,6.462,6.473,3.589,5.754,4.307,0.719,5.026h-1.439l-2.157,7.179-5.035,2.871,2.877,5.743-2.877,9.333v8.615l-10.068,7.179-7.193-2.154v-7.179l5.035-2.872-4.315-6.461H355.2l2.157-6.461-5.753-6.461-6.473-3.589-0.72-7.179,2.518-7.9-8.271-3.589v-7.179l5.753-5.026,7.193-1.435Z"/>
  <path id="鄂尔多斯" class="cls-1" d="M350.163,508.75l-7.911-2.226-7.911-3.517-4.316-4.307h-9.349l-7.192,4.307-6.473-1.436-7.911.718-4.316-7.179-5.034-5.025-10.788-2.154-7.192,7.179-5.035,3.59-7.191,3.589-3.6,10.051-7.192,5.743,2.877,2.153v12.02l7.912,4.492-7.912,4.307,2.877,5.026-5.035,5.743-9.349,7.9,2.158,2.871-6.473,5.026,1.438,11.486,9.35,0.718,7.192-2.872,11.507,2.872L264.578,587l12.226,0.717,1.439,5.026,4.315-1.436,8.631,2.871,9.349-2.871V587l1.439-2.872,5.034-.718,1.438-6.461-3.6-5.743,0.719-3.589L302.7,563.31l-5.035-2.872,1.439-4.307,7.191-2.154,4.316,1.436H317.8l5.035-3.589,5.753-.718,7.192-2.872,1.438-6.461-1.438-5.025,3.6,1.436,10.788-1.436,4.315-6.461,4.316,3.59,2.876-2.872v-7.179l5.035-2.872-4.315-6.461H355.2l2.157-6.461Z"/>
  <path id="乌海" class="cls-1" d="M234.371,523.826l5.035-7.9-1.439-5.025,3.6-3.59,5.035,9.333,2.157,1.436,2.877,2.153v12.02l7.912,4.492-7.912,4.307,2.877,5.026H246.6l0.359-5.743L243,535.312l-1.439.718-3.6-1.436v-7.179Z"/>
</svg>
