<?xml version="1.0" encoding="UTF-8"?>
<!DOCTYPE svg PUBLIC "-//W3C//DTD SVG 1.1//EN" "http://www.w3.org/Graphics/SVG/1.1/DTD/svg11.dtd">
<svg height="500" version="1.1" width="600" xmlns="http://www.w3.org/2000/svg"
     style="overflow: hidden; position: relative; left: -0.5px;" viewBox="0 0 600 500">
     ###湛江
     <path fill="#aad5ff" stroke="#f9fcfe"
          d="M 191.7 327.9 L 191.7 330.3 190.4 329.5 188.5 332.7 188.5 333.8 190.4 334.6 189.8 341.8 191 343.4 193 343 191 344.5 193 347.7 193 349.7 193.6 349.3 194.2 350.1 193.6 351.6 196.8 352.4 196.8 354.8 198 355.3 199.3 357.2 200.6 358 201.8 354.8 205 357.2 206.9 356.1 208.2 356.8 208.2 354.5 209.5 354.8 211.4 353.3 211.4 350.9 212 349.7 211.4 347.3 213.9 345.3 215.2 346.9 215.2 349.7 216.5 350.5 216.5 352.4 218.3 354.5 217.7 356.8 219.6 356.4 220.2 360.4 220.9 361.2 224 360 231.7 366.4 213.3 368 208.8 373.5 207.6 378.2 207.6 383 206.3 390.9 210.1 400.9 208.8 402.9 206.3 404 199.3 403.2 196.8 401.3 196.1 406.8 194.2 411.1 197.4 414.3 203.8 429.8 205 436.6 203.8 442.9 204.4 446.5 189.8 455.2 158.7 460 158.7 456 161.9 448.9 161.2 441.4 158.1 433 157.4 429.5 153.6 425.5 151.1 418.8 147.9 400.1 149.2 389 148.5 381.9 154.2 373.5 154.9 370.7 154.9 364.8 156.8 362 156.8 356.8 154.9 351.6 154.2 347.3 155.5 343.7 156.8 346.1 163.1 344.9 165 339 165.7 331.1 168.8 328.2 172.6 330.3 174.5 328.2 175.2 329.5 175.8 327.1 177.1 327.9 180.9 327.5 182.8 328.7 185.3 327.5 186 325.9 187.9 327.9 191.7 327.9"
          stroke-width="1" stroke-linejoin="round"
          style="-webkit-tap-highlight-color: rgba(0, 0, 0, 0); cursor: pointer; stroke-linejoin: round;"></path>
    ###茂名
    <path fill="#aad5ff" stroke="#f9fcfe"
          d="M 232.3 270 L 234.2 269.5 235.5 274.3 236.8 275.9 238.7 276.4 239.9 277.9 243.7 277.5 245.7 280.3 243.7 281 242.5 284.2 246.3 282.2 247.6 283.1 250.1 282.6 251.4 288.9 254.6 287.4 254.6 284.2 257 285.4 258.3 282.6 260.8 280.3 262.8 281.4 262.8 283.9 265.3 283.9 265.9 285 265.9 286.6 261.5 292.9 256.4 293.7 256.4 295 253.9 296.1 253.3 300.1 252 299.8 248.8 302.1 246.9 304.8 245.7 307.7 246.3 311.6 243.7 316.3 244.4 318.4 243.1 320.3 243.1 323.2 243.7 327.1 251.4 330.7 251.4 333.8 248.8 336.6 248.8 338.9 251.4 340.2 252.6 342.1 250.7 346.1 251.4 347.7 251.4 349.3 253.3 354.1 252 358 249.5 364.8 245.7 367.2 235.5 367.5 231.7 366.4 224 360 220.9 361.2 220.2 360.4 219.6 356.4 217.7 356.8 218.3 354.5 216.4 352.4 216.4 350.5 215.1 349.7 215.1 346.9 213.9 345.3 211.3 347.3 212 349.7 211.3 350.9 211.3 353.3 209.4 354.8 208.2 354.5 208.2 356.8 206.9 356.1 205 357.2 201.9 354.8 200.6 358 199.3 357.2 198 355.3 196.8 354.8 196.8 352.4 193.6 351.6 194.2 350.1 193.6 349.3 193 349.7 193 347.7 191.1 344.5 193 342.9 191.1 343.4 189.8 341.8 190.4 334.6 188.5 333.8 188.5 332.7 190.4 329.5 191.7 330.3 191.7 327.9 191.7 326.3 191.1 324.3 191.7 323.2 189.8 321.5 190.4 319.5 189.1 313.2 190.4 311.2 187.9 308.4 189.1 306.1 191.1 308 193 304.8 194.2 305.3 198 309.6 201.9 305.6 203.8 306.9 204.4 308.8 205.7 309.3 207.6 308 208.2 306.5 206.3 303.7 206.9 302.5 208.8 302.1 210.7 298.5 212.6 300.1 214.5 299.8 212 293.7 210.1 292.9 210.7 288.6 208.8 285.8 212 286.2 213.2 278.3 213.9 277.5 215.8 279.4 217.1 277.5 220.2 277.9 220.9 275.9 224 275.9 224.7 274.3 227.2 273.9 228.5 272.7 229.8 273.2 232.3 270"
          stroke-width="1" stroke-linejoin="round"
          style="-webkit-tap-highlight-color: rgba(0, 0, 0, 0); cursor: pointer; stroke-linejoin: round;"></path>
    ###阳江
    <path fill="#aad5ff" stroke="#f9fcfe"
          d="M 248.8 302.1 L 252 299.7 253.3 300.1 253.9 296.2 256.4 294.9 256.4 293.8 261.5 293 265.9 286.7 265.9 285 267.8 284.2 269.1 279 274.2 274.3 273.5 272.8 274.8 271.2 276.1 271.2 277.4 272.8 276.1 274.3 276.7 275.9 274.8 277.1 278.6 278.7 282.4 273.9 284.4 277.1 283.1 280.6 285 285.4 289.4 289.8 293.3 290.2 293.9 291.7 293.3 295.4 289.4 294.9 288.2 299.7 286.9 300.9 285.6 300.5 285 302.1 287.5 305.3 286.9 307.6 287.5 309.6 286.9 311.2 290.7 310.1 292 312.8 293.9 313.2 295.8 315.1 297.7 315.1 297.7 318.8 304.1 322.8 304.7 328.3 306 329.9 303.4 334.2 304.1 336.2 301.5 339 302.8 352.5 300.2 352.5 299 351.3 298.3 354.4 295.8 355.7 278 355.7 272.9 355.2 270.4 353.7 267.2 356 256.4 356 253.9 358.4 252 358.1 253.3 354.1 251.4 349.3 251.4 347.7 250.7 346.2 252.6 342.2 251.4 340.2 248.8 339 248.8 336.6 251.4 333.8 251.4 330.7 243.7 327.1 243.1 323.1 243.1 320.3 244.4 318.3 243.7 316.4 246.3 311.6 245.6 307.6 246.9 304.9 248.8 302.1"
          stroke-width="1" stroke-linejoin="round"
          style="-webkit-tap-highlight-color: rgba(0, 0, 0, 0); cursor: pointer; stroke-linejoin: round;"></path>
    ###云浮
    <path fill="#aad5ff" stroke="#f9fcfe"
          d="M 248.8 225.1 L 248.8 224.3 250.7 224.8 253.2 227.9 254.6 227.9 256.4 226.7 257 224.3 260.2 229.1 257.7 231.9 260.2 233.8 263.4 234.3 265.3 236.2 271 238.2 276.7 237.4 279.3 238.6 282.5 238.2 283.7 241.3 286.9 242.6 290.7 241.3 295.2 242.6 298.3 239.4 300.8 238.6 302.7 239 303.4 241.3 302.1 242.2 301.5 244.5 302.1 246.9 300.8 249.3 300.8 250.9 299.6 251.3 299.6 253.7 302.7 254.9 302.7 260.4 304 261.6 302.7 262.8 306.6 262.4 307.2 264.4 308.5 271.6 309.1 271.6 311 268.4 312.3 269.1 314.8 275.5 313.5 276.6 311.6 277.5 310.4 276.6 309.7 272.7 309.1 273.1 306.6 277.5 306.6 279.8 304.7 280.6 302.7 279.8 302.1 283 299.6 283.8 298.3 288.6 298.9 290.2 295.8 290.6 295.2 292.5 293.9 291.8 293.3 290.2 289.5 289.8 285 285.4 283.1 280.6 284.4 277.1 282.5 273.9 278.7 278.7 274.8 277.1 276.7 275.9 276.1 274.3 277.4 272.7 276.1 271.1 274.8 271.1 273.6 272.7 274.2 274.3 269.1 279.1 267.8 284.3 265.9 285 265.3 283.8 262.8 283.8 262.8 281.4 260.9 280.3 258.3 282.7 257 285.4 254.6 284.3 254.6 287.5 251.3 289 250.1 282.7 247.6 283 246.3 282.3 242.5 284.3 243.8 281.1 245.7 280.3 243.8 277.5 239.9 277.9 238.7 276.3 236.8 275.9 235.5 274.3 234.2 269.5 232.3 269.9 230.4 267.2 232.9 266.4 238.7 266.8 241.8 262.8 243.8 261.6 245 258.9 247.6 255.3 248.8 252.9 248.2 250.1 250.1 248.9 249.5 247.4 251.3 245.3 252 243.4 249.5 243 248.8 241 248.8 237 250.1 236.2 248.8 235 249.5 232.3 248.2 230.7 248.8 228.7 247.6 227.1 248.8 225.1"
          stroke-width="1" stroke-linejoin="round"
          style="-webkit-tap-highlight-color: rgba(0, 0, 0, 0); cursor: pointer; stroke-linejoin: round;"></path>
    ###江门
    <path fill="#aad5ff" stroke="#f9fcfe"
          d="M 293.9 291.7 L 295.2 292.5 295.8 290.6 299 290.2 298.3 288.6 299.6 283.8 302.2 283 302.8 279.8 304.7 280.6 306.6 279.8 306.6 277.5 309.1 273.1 309.7 272.7 310.4 276.7 311.6 277.5 313.5 276.7 314.8 275.5 312.3 269.1 314.2 267.2 316.1 268.3 316.7 270 316.1 273.1 316.7 273.5 319.3 270.8 318.6 269.5 321.8 267.6 323.1 268 325 265.2 326.2 269.1 328.8 269.5 331.3 267.6 332 262 335.1 259.3 337.7 258.5 341.5 262 346 262 347.9 269.1 352.3 271.9 351.7 275.2 353.5 281.1 356.1 285.4 357.3 291.7 355.4 291 354.2 292.2 351.7 290.2 353.5 294.2 352.9 298.9 352.3 302.4 347.9 306.4 347.9 308.8 346 314.8 346 331.4 346 337.4 340.2 342.2 339.6 343.7 339 349.7 335.8 352.1 330.1 352.5 325.6 350.5 321.2 351.7 317.4 351.3 315.4 352.9 312.3 357.3 307.2 360 304.1 358.4 302.8 352.5 301.5 339 304.1 336.2 303.4 334.2 306 329.8 304.7 328.3 304.1 322.8 297.7 318.8 297.7 315.1 295.8 315.1 293.9 313.2 292 312.8 290.7 310.1 286.9 311.2 287.5 309.6 286.9 307.6 287.5 305.3 285 302.1 285.6 300.5 286.9 300.9 288.2 299.7 289.4 294.9 293.3 295.4 293.9 291.7"
          stroke-width="1" stroke-linejoin="round"
          style="-webkit-tap-highlight-color: rgba(0, 0, 0, 0); cursor: pointer; stroke-linejoin: round;"></path>
    ###肇庆
    <path fill="#aad5ff" stroke="#f9fcfe"
          d="M 281.2 158.4 L 282.4 158.4 285 162.1 286.9 162.1 287.5 157.6 289.4 156.9 294.5 162.4 297.1 159.2 297.1 158.1 299.6 157.3 299.6 146.9 300.2 146.6 304.1 149 305.3 148.2 309.1 154.4 310.4 155.3 311 158.9 309.8 166 312.9 167.6 314.9 174.3 314.2 177.2 317.4 177.2 319.3 179.5 323.7 179.9 325 182.3 322.4 189 325.6 189.4 325 192.6 326.9 193.4 326.2 197.7 330.1 199.7 330.1 200.9 328.1 203.7 330.7 205.7 330.7 208.1 332.6 208.1 333.9 209.6 333.9 211.6 331.3 215.2 330.1 220.3 330.7 221.1 331.3 219.6 333.2 220 335.8 223.1 334.5 226.7 332 230.3 332.6 231.5 331.3 233.8 331.3 232.3 330.1 232.7 328.8 231.5 332.6 246.5 331.3 247.7 328.8 249.3 327.5 248.9 326.9 252.5 324.3 253.2 323.1 255.7 318.7 257.7 317.4 256.9 316.8 260.1 315.5 260.9 313.6 260.4 311 263.2 307.2 264.4 306.6 262.4 302.8 262.8 304.1 261.6 302.8 260.4 302.8 254.9 299.6 253.7 299.6 251.3 300.9 250.9 300.9 249.3 302.1 246.9 301.5 244.5 302.1 242.2 303.4 241.3 302.8 239 300.9 238.6 298.3 239.4 295.2 242.6 290.7 241.3 286.9 242.6 283.7 241.3 282.4 238.2 279.3 238.6 276.7 237.5 271.1 238.2 265.3 236.2 263.4 234.3 260.3 233.8 257.7 231.9 260.3 229.1 257.1 224.3 256.4 226.7 254.5 227.9 253.3 227.9 250.7 224.8 248.8 224.3 248.8 225.1 247.5 224 249.4 220.8 250.1 214.4 251.4 214 253.9 210.9 255.2 207.3 255.2 202.9 260.9 200.9 262.2 201.7 262.8 198.9 265.3 196.9 264.7 195.8 262.8 195.4 264.7 187.4 266.6 188.2 267.9 187.4 273.6 189.4 274.8 186.2 274.2 183 276.1 181.9 276.1 179.1 277.4 179.9 279.3 179.1 281.2 176.7 279.9 172.8 278 169.6 278 164 277.4 162.1 278 158.9 279.9 159.6 281.2 158.4"
          stroke-width="1" stroke-linejoin="round"
          style="-webkit-tap-highlight-color: rgba(0, 0, 0, 0); cursor: pointer; stroke-linejoin: round;"></path>
    ###佛山
    <path fill="#aad5ff" stroke="#f9fcfe"
          d="M 307.2 264.4 L 311 263.2 313.6 260.5 315.5 260.8 316.7 260 317.4 256.8 318.7 257.6 323.1 255.7 324.4 253.3 326.9 252.5 327.5 248.9 328.8 249.3 331.3 247.7 332.6 246.5 328.8 231.5 330 232.7 331.3 232.3 331.3 233.9 332.6 231.5 331.9 230.2 334.5 226.7 335.8 223.1 333.2 220 331.3 219.5 330.7 221.2 330 220.4 331.3 215.2 333.9 211.6 333.9 209.7 332.6 208.1 333.2 206.5 336.4 207.6 337 206.8 337.7 208.5 335.8 210 336.4 211.6 340.2 214.8 340.2 216.4 341.5 216.4 342.1 218.8 341.5 219.1 341.5 222 344.7 222.3 344 225.9 345.3 227.9 345.3 229.5 347.2 229.5 346.6 227.5 349.7 225.5 352.9 227.9 352.9 231.9 354.8 234.2 353.6 236.6 354.8 237.9 354.8 241.8 352.9 243 354.8 244.6 357.4 245 356.7 249.3 359.3 251.7 358.6 255.7 359.9 256.5 360.5 260 365 260.8 364.4 262.4 363.1 262.4 363.7 264 360.5 266.8 358 267.6 356.7 266 354.2 271.1 352.3 272 347.8 269.2 345.9 262 341.5 262 337.7 258.4 335.1 259.2 331.9 262 331.3 267.6 328.8 269.5 326.3 269.2 325 265.2 323.1 268 321.8 267.6 318.7 269.5 319.3 270.8 316.7 273.5 316.1 273.2 316.7 270 316.1 268.4 314.2 267.2 312.3 269.2 311 268.4 309.1 271.6 308.5 271.6 307.2 264.4"
          stroke-width="1" stroke-linejoin="round"
          style="-webkit-tap-highlight-color: rgba(0, 0, 0, 0); cursor: pointer; stroke-linejoin: round;"></path>
    ###清远
    <path fill="#aad5ff" stroke="#f9fcfe"
          d="M 342.1 108.5 L 343.4 113.3 340.2 116 339 122.8 337.1 124 337.7 127.9 335.2 130.7 335.8 131.9 339.6 132.7 341.5 136.2 345.3 141 347.2 141.4 348.4 139.4 351 141 352.3 139.8 354.2 140.7 356.7 138.6 358 141.8 359.9 142.6 365 141 368.1 142.6 370.7 140.2 372.6 141 373.9 138.6 376.4 138.6 381.5 141.8 382.1 143.8 381.5 145 382.8 145.7 384 145.7 385.9 143.8 386.6 145.4 389.1 146.5 389.8 150.2 391.7 151.7 391 156.1 392.9 157.2 395.4 161.2 392.3 164.1 392.3 165.6 391 166.8 391 169.1 390.4 171.2 389.1 172 387.8 173.9 385.9 173.6 384.7 176.8 387.2 179.1 389.1 183.1 387.8 183.1 385.9 186.3 383.4 185.8 383.4 188.6 379 189.4 378.3 191.4 379 197 377 199.7 374.5 197.7 370.7 198.5 367.5 195.7 363.7 195 363.7 196.5 361.2 201.3 359.2 201.3 359.2 203.3 353.5 206.9 354.2 208.4 353.5 210.4 340.2 214.8 336.4 211.6 335.8 210 337.7 208.4 337.1 206.9 336.4 207.7 333.2 206.5 332.6 208.1 330.7 208.1 330.7 205.7 328.2 203.7 330.1 200.9 330.1 199.7 326.3 197.7 326.9 193.3 325 192.5 325.6 189.4 322.4 189 325 182.3 323.7 179.9 319.3 179.5 317.4 177.1 314.2 177.1 314.8 174.3 312.9 167.6 309.7 166 311 158.9 310.4 155.3 309.1 154.5 305.3 148.2 304 148.9 300.3 146.5 299.6 147 299.6 157.2 297.1 158.1 297.1 159.3 294.5 162.4 289.4 156.9 287.5 157.7 286.9 162 285 162 282.5 158.4 281.2 158.4 281.8 156.4 283.7 156.9 284.4 155.7 286.3 154.1 288.2 150.9 288.2 148.6 286.3 143.8 283.7 141.4 285 139 285 137 283.1 133.8 281.2 132.7 280.6 129.5 281.8 127.9 281.2 125.5 282.5 123.6 286.3 122 286.9 119.6 290.7 115.6 294.5 113.3 294.5 108.9 292 106.4 292 104.5 293.9 101.4 293.3 99.3 295.8 89.9 297.7 89.1 299.6 91.4 302.1 91.8 305.3 89.4 307.8 93 310.4 89.9 311.6 92.2 315.5 93.8 323.1 93.8 326.9 98.9 325.6 102.1 327.5 102.5 327.5 106.1 330.1 107.7 330.1 110.9 335.2 110.9 337.1 109.3 342.1 108.5"
          stroke-width="1" stroke-linejoin="round"
          style="-webkit-tap-highlight-color: rgba(0, 0, 0, 0); cursor: pointer; stroke-linejoin: round;"></path>
    ###广州
    <path fill="#aad5ff" stroke="#f9fcfe"
          d="M 340.2 214.8 L 353.6 210.4 354.2 208.5 353.6 206.9 359.3 203.2 359.3 201.3 361.2 201.3 363.7 196.5 363.7 195 367.5 195.7 370.7 198.5 374.5 197.8 377 199.7 378.9 197 378.3 191.4 378.9 189.4 383.4 188.6 383.4 185.9 385.9 186.2 387.8 183 389.1 183 393.6 180.7 394.2 181.9 399.9 180.7 402.4 181.5 402.4 183 403.7 186.7 402.4 190.7 403.7 191.4 401.8 193 400.5 192.6 398.6 194.5 395.5 195.3 394.8 197.4 391.6 199.7 390.4 199.3 389.7 200.9 389.7 202.9 392.3 204.1 391.6 206.9 392.3 208.5 396.7 212 396.7 213.2 398.6 213.6 397.4 214.1 397.4 216.4 399.3 216.8 399.9 219.6 399.3 220.4 399.3 223.5 394.8 222.8 392.9 224.3 394.2 224.7 393.6 228.7 394.2 231.4 393.6 235 391 237.5 391 239.4 384.7 237.5 374.5 242.2 372.6 244.6 375.1 258 381.5 268 384 272.8 385.3 281.1 382.1 282.6 380.2 282.6 378.3 278.7 375.1 277.1 373.2 273.1 373.2 271.5 368.8 266.7 363.7 264 363 262.4 364.4 262.4 365 260.9 360.6 260 359.9 256.4 358.7 255.7 359.3 251.7 356.7 249.4 357.4 245 354.8 244.6 352.9 243 354.8 241.8 354.8 237.8 353.6 236.6 354.8 234.3 352.9 231.9 352.9 227.9 349.8 225.5 346.6 227.5 347.2 229.5 345.3 229.5 345.3 227.9 344 226 344.7 222.3 341.5 222 341.5 219.1 342.1 218.8 341.5 216.4 340.2 216.4 340.2 214.8"
          stroke-width="1" stroke-linejoin="round"
          style="-webkit-tap-highlight-color: rgba(0, 0, 0, 0); cursor: pointer; stroke-linejoin: round;"></path>
    ###中山
    <path fill="#aad5ff" stroke="#f9fcfe"
          d="M 352.3 272 L 354.2 271.1 356.7 266 358 267.6 360.5 266.8 363.7 264 368.8 266.8 373.3 271.5 373.3 273.2 375.2 277 378.3 278.7 380.2 282.6 382.1 282.6 382.1 283.9 382.7 288.2 379.6 287.4 375.2 290.2 371.4 290.6 370.7 292.2 371.4 296.1 370.1 297.7 372 301.7 367.5 305.3 366.3 307.3 366.3 304.9 362.5 302.1 361.2 296.1 357.4 291.8 356.1 285.4 353.6 281 351.6 275.1 352.3 272"
          stroke-width="1" stroke-linejoin="round"
          style="-webkit-tap-highlight-color: rgba(0, 0, 0, 0); cursor: pointer; stroke-linejoin: round;"></path>
    ###珠海
    <path fill="#aad5ff" stroke="#f9fcfe"
          d="M 345.9 314.8 L 347.8 308.8 347.8 306.4 352.3 302.5 352.9 298.9 353.6 294.1 351.7 290.2 354.2 292.2 355.5 290.9 357.4 291.7 361.2 296.1 362.5 302.1 366.3 304.9 366.3 307.3 367.5 305.3 371.9 301.7 370.1 297.8 371.3 296.1 370.7 292.2 371.3 290.6 375.1 290.2 379.6 287.4 382.7 288.2 387.8 294.1 390.4 302.9 389.7 304.5 391 306.8 396.1 310.4 396.7 309.6 415.2 310 419.5 309.3 422.7 312.8 424 316.4 422.1 319.9 408.8 323.1 404.4 325.1 401.2 329.1 399.9 333.9 398.6 335.8 395.5 334.6 391.6 327 385.3 327 380.8 325.5 377.7 318.3 375.7 317.5 369.5 320.3 361.8 329.5 352.9 331.8 345.9 331.5 345.9 314.8 M 377 308.1 L 377.7 310.8 374.5 312.4 373.2 306.4 373.8 305.3 375.1 304.9 377 308.1"
          stroke-width="1" stroke-linejoin="round"
          style="-webkit-tap-highlight-color: rgba(0, 0, 0, 0); cursor: pointer; stroke-linejoin: round;"></path>
    ###深圳
    <path fill="#aad5ff" stroke="#f9fcfe"
          d="M 381.5 268 L 385.9 267.5 388.5 265.2 388.5 263.2 391 262 391.7 259.6 394.2 258.8 396.7 259.3 399.9 262.5 400.5 264.8 403.7 265.2 408.8 268.8 409.4 270.7 409.4 272 410.7 272.7 412.6 266.8 410.7 264 413.2 261.6 414.5 263.2 420.2 261.6 420.2 263.6 421.5 264.8 422.7 265.2 424 264 424.6 265.6 424 268.4 425.9 269.5 425.3 272.3 434.2 272.3 435.4 279 438 282.2 437.4 283.8 432.9 289 429.7 289.8 427.8 288.6 426.5 286.2 426.5 281.4 425.3 279.5 416.4 279.5 413.8 280.7 410 279.8 407.5 281.9 405.6 281.4 403.7 283.8 400.5 283.4 393.6 289 392.9 296.5 390.4 302.9 387.8 294.1 382.8 288.2 382.1 283.8 382.1 282.7 385.3 281.1 384 272.7 381.5 268"
          stroke-width="1" stroke-linejoin="round"
          style="-webkit-tap-highlight-color: rgba(0, 0, 0, 0); cursor: pointer; stroke-linejoin: round;"></path>
    ###东莞
    <path fill="#aad5ff" stroke="#f9fcfe"
          d="M 391 239.4 L 398.7 239.4 401.1 241.8 403.7 240.6 405 241 406.2 243.8 408.8 245.8 407.5 248.1 408.1 249.3 410 249.7 411.3 248.6 412.6 248.9 413.2 250.5 412.6 252.9 415.1 254.4 414.5 256.1 413.8 256.5 413.2 261.6 410.7 264 412.6 266.8 410.7 272.7 409.4 272 409.4 270.8 408.8 268.8 403.7 265.2 400.5 264.8 399.9 262.4 396.7 259.2 394.2 258.8 391.7 259.6 391 262 388.5 263.2 388.5 265.2 385.9 267.6 381.5 268 375.1 258.1 372.6 244.6 374.5 242.2 384.7 237.4 391 239.4"
          stroke-width="1" stroke-linejoin="round"
          style="-webkit-tap-highlight-color: rgba(0, 0, 0, 0); cursor: pointer; stroke-linejoin: round;"></path>
    ###韶关
    <path fill="#aad5ff" stroke="#f9fcfe"
          d="M 423.4 106.9 L 422.7 110.1 423.4 111.7 420.2 116.8 420.2 119.2 419.6 121.2 417 122.8 416.4 124.7 410.7 126.7 411.9 128.3 413.2 128.3 417 130.3 418.3 133.8 417 136.7 415.8 137 418.3 140.6 414.5 145.4 414.5 148.9 417 150.1 415.1 156.5 416.4 160.1 417.7 160.8 417 162.8 419.6 166.4 420.2 165.2 424.6 165.2 427.2 167.6 428.5 166.8 427.2 165.2 427.2 163.3 432.3 158.9 434.2 159.3 434.8 162.8 432.9 164.4 432.3 166 431 167.2 429.7 168 428.5 167.2 427.8 169.1 423.4 173.5 422.1 179.9 420.2 183.5 419.6 182.7 415.8 183.1 414.5 181.5 414.5 179.5 411.9 179.5 410.7 178.3 409.4 179.9 406.2 181.1 403.7 180.3 402.4 181.5 399.9 180.7 394.2 181.9 393.6 180.7 389.1 183.1 387.2 179.1 384.7 176.7 385.9 173.5 387.8 173.9 389.1 172 390.4 171.2 391 169.1 391 166.8 392.3 165.6 392.3 164 395.5 161.2 392.9 157.2 391 156.1 391.7 151.8 389.7 150.1 389.1 146.6 386.6 145.4 385.9 143.8 384 145.7 382.8 145.7 381.5 144.9 382.1 143.8 381.5 141.8 376.4 138.6 373.9 138.6 372.6 141 370.7 140.2 368.1 142.6 365 141 359.9 142.6 358 141.8 356.7 138.6 354.2 140.6 352.3 139.9 351 141 348.5 139.4 347.2 141.4 345.3 141 341.5 136.2 339.6 132.7 335.8 131.9 335.1 130.7 337.7 127.9 337.1 124 339 122.8 340.2 116 343.4 113.3 342.1 108.5 342.1 106.5 339.6 102.9 343.4 97.4 340.9 93.4 340.9 91 344 88.6 342.1 85.1 337.1 86.2 334.5 85.4 333.9 79.1 335.1 79.9 336.4 78.7 337.1 81.5 338.3 81.5 339.6 78.7 344 77.9 346 75.5 347.2 75.9 348.5 73.2 349.8 73.5 350.4 68 353.5 68.8 356.1 66.5 359.2 67.2 359.2 66 360.5 67.6 360.5 71.2 363.1 71.6 363.7 74 366.9 74.7 368.1 77.2 371.3 76.4 372.6 77.5 373.9 75.5 374.5 77.5 375.8 78.7 376.4 80.7 385.9 77.2 387.2 79.5 389.7 79.1 391 77.2 393.6 74.7 393.6 72 398 70.8 400.5 71.2 399.3 74 401.1 75.5 402.4 74.7 401.8 75.9 403 77.9 401.1 83.1 401.8 85.1 407.5 80.7 410 80.7 411.3 81.9 415.8 81.1 417.7 82.2 418.3 79.5 422.7 79.9 425.3 78.3 425.3 75.9 427.8 76.4 431.6 73.2 433.5 75.5 434.2 75.1 434.2 76.4 436.7 79.9 440.5 79.9 443.1 83.1 443.1 85.9 441.2 87.4 439.9 90.6 441.8 91.8 442.4 94.6 439.3 95.4 439.3 96.6 437.4 97.8 434.2 98.1 432.9 97 431.6 101.7 430.4 101.3 429.1 103.3 427.2 103.3 423.4 106.9"
          stroke-width="1" stroke-linejoin="round"
          style="-webkit-tap-highlight-color: rgba(0, 0, 0, 0); cursor: pointer; stroke-linejoin: round;"></path>
    ###惠州
    <path fill="#aad5ff" stroke="#f9fcfe"
          d="M 402.4 181.4 L 403.7 180.3 406.3 181.1 409.4 179.9 410.7 178.3 412 179.5 414.5 179.5 414.5 181.4 415.7 183.1 419.6 182.7 420.2 183.5 418.9 188.3 420.2 190.6 420.2 193.3 420.8 195 422.7 194.1 425.9 198.1 427.8 197 429.1 197.8 432.9 203.7 432.3 204.9 432.9 206.5 435.4 209.2 438 207.3 438.6 209.2 440.5 209.2 439.9 212 440.5 214 436.7 218.4 440.5 218 440.5 221.5 445 225.1 445 227.9 445.6 228.7 445.6 232.3 448.8 235.4 450.7 234.2 450.1 232.3 453.2 227.9 453.2 223.1 455.1 222.8 455.7 224.7 457.6 226.3 458.3 223.9 461.4 224.4 464.6 221.5 472.9 219.9 475.4 222.3 475.4 224.4 476.1 225.1 477.3 224.7 481.1 227.1 481.8 229.5 482.4 229.9 481.1 231.9 478 233.9 476.7 236.3 474.8 236.6 474.2 240.6 472.2 243.3 468.4 244.9 466.5 247.8 464 247 457.6 252.1 453.2 254.5 454.5 256.5 453.9 258.5 455.1 260 455.1 261.6 457.1 264 458.3 264.4 457.6 265.6 460.2 270.4 458.3 271.9 455.7 275.9 453.9 282.3 450.1 283.9 443.7 282.6 440.5 283.9 441.8 291 441.2 293 434.2 291.8 432.9 290.6 432.9 289 437.3 283.9 438 282.3 435.4 279.1 434.2 272.3 425.3 272.3 425.9 269.6 424 268.3 424.6 265.6 424 264 422.7 265.2 421.5 264.8 420.2 263.5 420.2 261.6 414.5 263.2 413.3 261.6 413.8 256.5 414.5 256 415.1 254.5 412.6 252.9 413.3 250.5 412.6 248.9 411.3 248.5 410.1 249.7 408.2 249.3 407.5 248.1 408.8 245.7 406.3 243.8 405 241 403.7 240.6 401.2 241.8 398.6 239.4 391 239.4 391 237.4 393.6 235.1 394.2 231.5 393.6 228.7 394.2 224.7 392.9 224.4 394.8 222.8 399.3 223.6 399.3 220.4 399.9 219.6 399.3 216.7 397.4 216.4 397.4 214 398.6 213.6 396.7 213.2 396.7 212 392.3 208.5 391.6 206.9 392.3 204.1 389.7 202.9 389.7 201 390.4 199.3 391.6 199.7 394.8 197.3 395.5 195.4 398.6 194.6 400.5 192.6 401.8 193 403.7 191.4 402.4 190.6 403.7 186.6 402.4 183.1 402.4 181.4"
          stroke-width="1" stroke-linejoin="round"
          style="-webkit-tap-highlight-color: rgba(0, 0, 0, 0); cursor: pointer; stroke-linejoin: round;"></path>
    ###河源
    <path fill="#aad5ff" stroke="#f9fcfe"
          d="M 418.3 133.9 L 421.5 133.1 422.8 134.7 423.4 139 424.7 140.2 431 135 432.3 136.6 434.2 136.6 436.1 134.2 438.6 133.4 441.2 137.1 443 134.7 443 131.1 449.4 132.7 450.7 134.7 451.9 131.9 453.2 127.5 454.5 128.3 457.7 126.3 459.6 127.1 461.5 124.7 464.6 127.5 465.3 126.3 469.1 125.5 469.1 124 472.9 122.7 474.2 121.2 476.1 120.8 478.6 122.3 479.3 120 481.8 119.2 485.6 120.4 488.1 125.2 490 125.9 490 129.1 488.1 129.9 487.5 131.9 487.5 134.2 486.3 135.5 486.9 139.8 491.3 141.4 491.9 142.6 492.6 142.2 491.3 143.8 491.9 145.8 490 150.1 491.9 157.6 489.4 161.3 489.4 163.2 487.5 162 488.7 168 487.5 168.4 486.3 165.2 483.7 166 483.7 167.6 481.8 171.2 483.7 173.2 484.3 177.5 481.8 179.1 480.5 184.2 478.6 186.6 478.6 187.4 479.9 189.8 476.7 192.6 478.6 192.9 480.5 191.8 480.5 194.6 481.8 197.4 483.1 196.1 485 196.9 482.4 203.7 484.3 207.7 482.4 213.6 484.3 220.3 485.6 220.8 485.6 224 486.3 224.7 485 225.5 484.3 227.5 482.4 227.5 482.4 229.9 481.8 229.5 481.2 227.1 477.4 224.7 476.1 225.1 475.4 224.3 475.4 222.4 472.9 220 464.6 221.5 461.5 224.3 458.3 224 457.7 226.3 455.7 224.7 455.1 222.7 453.2 223.2 453.2 227.9 450 232.2 450.7 234.3 448.8 235.4 445.6 232.2 445.6 228.7 444.9 227.9 444.9 225.1 440.5 221.5 440.5 218 436.7 218.4 440.5 214 439.9 212 440.5 209.3 438.6 209.3 438 207.3 435.5 209.3 432.9 206.5 432.3 204.9 432.9 203.7 429.1 197.7 427.8 196.9 425.9 198.1 422.8 194.2 420.8 195 420.2 193.4 420.2 190.6 418.9 188.2 420.2 183.4 422.1 179.9 423.4 173.5 427.8 169.2 428.5 167.2 429.7 168 431 167.2 432.3 166 432.9 164.5 434.8 162.8 434.2 159.3 432.3 158.9 427.2 163.2 427.2 165.2 428.5 166.8 427.2 167.6 424.7 165.2 420.2 165.2 419.6 166.4 417 162.8 417.7 160.8 416.4 160 415.1 156.5 417 150.1 414.5 149 414.5 145.4 418.3 140.6 415.8 137.1 417 136.6 418.3 133.9"
          stroke-width="1" stroke-linejoin="round"
          style="-webkit-tap-highlight-color: rgba(0, 0, 0, 0); cursor: pointer; stroke-linejoin: round;"></path>
    ###汕尾
    <path fill="#aad5ff" stroke="#f9fcfe"
          d="M 482.4 229.8 L 482.4 227.5 484.3 227.5 484.9 225.5 486.2 224.7 485.6 223.9 485.6 220.8 487.5 219.6 488.1 216.4 490.7 216 492.6 213.6 493.2 213.6 497.6 218.4 497 222 502.7 220 505.3 223.5 504.6 224.3 504 227.1 505.9 229.1 502.1 229.8 501.5 233.5 500.8 232.7 500.2 234.3 505.9 239 507.2 240.6 507.8 239.4 511 239 511.6 242.2 513.5 244.2 511.6 246.5 512.9 247.3 512.9 250.5 514.8 252.9 516.1 251.7 521.7 255.7 523.6 254.9 524.9 256.1 526.2 252.9 528.7 252.9 528.7 258.8 527.5 259.6 523.1 263.2 516.7 264.4 511.6 268.4 507.8 269.6 504 269.1 495.1 264.4 494.5 271.1 493.2 273.1 490 275.5 484.9 275.5 479.2 270.7 474.1 268.4 460.2 270.4 457.7 265.6 458.3 264.4 457 264 455.1 261.6 455.1 260.1 453.9 258.4 454.5 256.4 453.2 254.5 457.7 252.1 464 247 466.6 247.7 468.5 245 472.3 243.4 474.1 240.6 474.8 236.7 476.7 236.2 477.9 233.8 481.1 231.9 482.4 229.8"
          stroke-width="1" stroke-linejoin="round"
          style="-webkit-tap-highlight-color: rgba(0, 0, 0, 0); cursor: pointer; stroke-linejoin: round;"></path>
    ###梅州
    <path fill="#aad5ff" stroke="#f9fcfe"
          d="M 478.6 186.7 L 480.5 184.3 481.8 179.1 484.3 177.5 483.7 173.2 481.8 171.1 483.7 167.6 483.7 166 486.2 165.2 487.5 168.4 488.8 168 487.5 162 489.4 163.3 489.4 161.3 492 157.7 490 150.1 492 145.8 491.3 143.8 492.6 142.2 492 142.6 491.3 141.4 486.9 139.8 486.2 135.4 487.5 134.2 487.5 131.9 488.1 129.9 490 129.1 492 130.7 493.2 130.2 497 132.3 497.7 136.2 500.2 136.2 506.5 134.7 502.1 127.2 504.6 125.6 502.7 124.3 501.4 121.2 505.2 110 509.7 112.4 509.1 107.6 514.1 109.3 515.4 110.8 518 110.5 519.9 114 521.8 113.7 524.3 114.5 526.9 112 528.8 115.2 530 115.6 529.4 117.2 530 118.4 533.2 117.6 535.1 115.6 535.1 116 535.8 115.2 535.8 113.2 538.9 112 538.3 113.7 540.2 114.8 537.7 116 537.7 117.6 538.3 117.6 540.2 120 540.2 122 542.1 124 544 123.5 545.9 128.7 545.3 130.7 545.9 131.5 548.4 130.7 550.3 128.3 552.2 129.1 554.1 127.9 558.6 127.2 559.2 128.3 560.5 126.7 562.4 126.7 563 128.7 559.2 135.4 561.8 139.4 564.9 140.6 565.6 141.8 564.3 143.4 564.9 144.6 568.7 149 568.7 153.3 570 155.3 570 158.8 567.5 159.6 568.1 160.9 566.2 163.6 564.9 162.4 564.3 163.6 561.1 164 560.5 166 560.5 169.5 559.2 169.5 557.9 171.5 556.7 171.1 556 175.5 555.4 176.3 552.9 175.9 552.9 177.5 551.6 178.3 551.6 179.1 550.9 179.9 550.3 182.2 548.4 182.2 546.6 184.3 544.6 185.4 545.9 187.4 544.6 193.4 540.2 191.8 537 194.5 535.1 191.8 531.9 192.6 530 194.9 528.8 195.4 528.1 196.9 526.2 198.9 526.9 201.7 525.6 203.3 521.1 202.5 519.2 201.3 518.6 201.3 519.2 202.1 514.8 200.9 512.9 202.5 509.7 202.5 506.5 200.1 504.6 202.1 504.6 206.4 504 206.4 503.3 210.4 499.5 210.4 497.7 207.7 493.9 211.2 493.2 213.6 492.6 213.6 490.7 216 488.1 216.4 487.5 219.5 485.6 220.8 484.3 220.3 482.4 213.6 484.3 207.7 482.4 203.7 485 196.9 483.1 196.1 481.8 197.4 480.5 194.5 480.5 191.8 478.6 193 476.7 192.6 479.9 189.9 478.6 187.4 478.6 186.7"
          stroke-width="1" stroke-linejoin="round"
          style="-webkit-tap-highlight-color: rgba(0, 0, 0, 0); cursor: pointer; stroke-linejoin: round;"></path>
    ###揭阳
    <path fill="#aad5ff" stroke="#f9fcfe"
          d="M 493.2 213.7 L 493.8 211.2 497.7 207.6 499.6 210.5 503.4 210.5 504 206.5 504.6 206.5 504.6 202.2 506.6 200.1 509.7 202.5 512.9 202.5 514.8 200.9 519.3 202.2 518.6 201.3 519.3 201.3 521.1 202.5 525.6 203.3 526.8 201.7 526.2 199 528.1 197 528.7 195.3 530 195 531.9 192.6 535.1 191.8 537 194.6 537 196.1 538.9 197.8 545.3 200.5 546.5 203.3 546.5 205.7 548.4 206.8 547.2 210 547.2 211.6 548.4 213.2 551.6 214.4 552.3 216.8 549.1 214.4 550.3 216.4 549.1 220.4 546.5 216.4 543.4 216 544 212 542.1 212 540.2 214 539.5 210.8 537 212 535.7 214.8 533.8 216 535.7 218.4 536.4 222.7 534.5 223.5 534.5 225.1 531.3 232.3 530.6 237.4 532.6 240.6 535.1 240.2 536.4 243.4 538.3 244.6 540.8 243.4 541.5 241.8 543.4 240.2 550.3 239.8 551.6 251.3 547.2 256.1 544 258 539.5 258 533.8 256.1 528.7 258.8 528.7 252.9 526.2 252.9 524.9 256.1 523.7 254.8 521.7 255.7 516 251.7 514.8 252.9 512.9 250.5 512.9 247.3 511.6 246.6 513.5 244.2 511.6 242.1 511 239 507.8 239.4 507.2 240.6 505.9 239 500.2 234.3 500.8 232.6 501.5 233.4 502.1 229.9 505.9 229.1 504 227.1 504.6 224.3 505.3 223.5 502.7 220 497 221.9 497.7 218.4 493.2 213.7"
          stroke-width="1" stroke-linejoin="round"
          style="-webkit-tap-highlight-color: rgba(0, 0, 0, 0); cursor: pointer; stroke-linejoin: round;"></path>
    ###潮州
    <path fill="#aad5ff" stroke="#f9fcfe"
          d="M 537 194.6 L 540.2 191.8 544.6 193.4 545.9 187.4 544.6 185.4 546.5 184.3 548.4 182.3 550.4 182.3 551 179.9 551.6 179.1 551.6 178.3 552.9 177.5 552.9 175.9 555.4 176.4 556.1 175.6 556.7 171.2 557.9 171.6 559.3 169.5 560.5 169.5 560.5 166 561.2 164 564.3 163.7 564.9 162.4 566.2 163.7 568.1 160.8 567.5 159.7 570 158.9 573.2 162.4 570 165.6 569.4 168.4 569.4 170.8 570.6 171.6 570.6 174.7 572.5 175.9 571.9 182.3 572.5 185.1 575.1 187.1 574.4 189.8 577 194.2 577 197.7 585.3 202.5 584.6 208 573.2 213.6 568.1 212.8 568.1 203.7 564.3 200.9 563 201.7 563.6 203.3 561.7 203.7 561.2 205.7 557.3 204.9 556.7 209.6 557.3 214 554.8 216.8 552.3 216.8 551.6 214.4 548.4 213.2 547.2 211.6 547.2 210.1 548.4 206.9 546.5 205.7 546.5 203.3 545.3 200.5 538.9 197.7 537 196.1 537 194.6"
          stroke-width="1" stroke-linejoin="round"
          style="-webkit-tap-highlight-color: rgba(0, 0, 0, 0); cursor: pointer; stroke-linejoin: round;"></path>
    ###汕头
    <path fill="#aad5ff" stroke="#f9fcfe"
          d="M 542.1 212.1 L 544 212.1 543.4 216 546.5 216.4 549.1 220.3 550.4 216.4 549.1 214.4 552.3 216.8 554.8 216.8 557.4 214 556.7 209.7 557.4 204.9 561.1 205.7 561.7 203.7 563.6 203.3 563 201.7 564.3 200.9 568.1 203.7 568.1 212.8 573.2 213.6 584.6 208.1 585.3 214 586.5 218.3 587.2 220.3 593.5 225.9 594.2 227.5 594.2 231.8 592.9 233.1 588.4 233.9 584.6 229.5 579.5 226.3 575.1 221.5 568.1 222 562.4 225.5 563 228.3 564.9 231.8 564.3 233.9 557.9 235.5 555.4 237.8 552.3 237.8 550.4 239.8 543.4 240.2 541.5 241.8 540.8 243.3 538.3 244.6 536.4 243.3 535.1 240.2 532.6 240.6 530.7 237.4 531.3 232.3 534.5 225.1 534.5 223.5 536.4 222.8 535.7 218.3 533.8 216 535.7 214.8 537 212.1 539.6 210.8 540.2 214 542.1 212.1"
          stroke-width="1" stroke-linejoin="round"
          style="-webkit-tap-highlight-color: rgba(0, 0, 0, 0); cursor: pointer; stroke-linejoin: round;"></path>
</svg>